<?xml version="1.0" encoding="UTF-8" standalone="no"?>
<!-- Generator: Adobe Illustrator 13.0.0, SVG Export Plug-In . SVG Version: 6.00 Build 14948)  -->

<svg
   xmlns:dc="http://purl.org/dc/elements/1.1/"
   xmlns:cc="http://creativecommons.org/ns#"
   xmlns:rdf="http://www.w3.org/1999/02/22-rdf-syntax-ns#"
   xmlns:svg="http://www.w3.org/2000/svg"
   xmlns="http://www.w3.org/2000/svg"
   xmlns:sodipodi="http://sodipodi.sourceforge.net/DTD/sodipodi-0.dtd"
   xmlns:inkscape="http://www.inkscape.org/namespaces/inkscape"
   version="1.1"
   id="Layer_1"
   x="0px"
   y="0px"
   width="128px"
   height="128px"
   viewBox="0 0 128 128"
   enable-background="new 0 0 128 128"
   xml:space="preserve"
   inkscape:version="0.48.1 r9760"
   sodipodi:docname="happy-kitty.svg"
   inkscape:export-filename="/home/maidis/happy-kitty-logo.png"
   inkscape:export-xdpi="180"
   inkscape:export-ydpi="180"><metadata
   id="metadata131"><rdf:RDF><cc:Work
       rdf:about=""><dc:format>image/svg+xml</dc:format><dc:type
         rdf:resource="http://purl.org/dc/dcmitype/StillImage" /><dc:title /></cc:Work></rdf:RDF></metadata><defs
   id="defs129"><linearGradient
     id="SVGID_3_-4"
     gradientUnits="userSpaceOnUse"
     x1="-114.9897"
     y1="-871.33838"
     x2="-114.9897"
     y2="-875.92761"
     gradientTransform="matrix(0.9592,0.2827,0.2827,-0.9592,444.1304,-735.9191)"><stop
       offset="0"
       style="stop-color:#DEDEDE"
       id="stop28" /><stop
       offset="1"
       style="stop-color:#FEFEFE"
       id="stop30-7" /></linearGradient><linearGradient
     id="SVGID_4_-4"
     gradientUnits="userSpaceOnUse"
     x1="-83.4375"
     y1="-1014.0278"
     x2="-154.76109"
     y2="-977.86139"
     gradientTransform="matrix(0.9098,0.415,0.415,-0.9098,601.2445,-757.3582)"><stop
       offset="0"
       style="stop-color:#DEDEDE"
       id="stop35" /><stop
       offset="1"
       style="stop-color:#FEFEFE"
       id="stop37-4" /></linearGradient><linearGradient
     id="SVGID_5_-3"
     gradientUnits="userSpaceOnUse"
     x1="-44.412601"
     y1="-192.2471"
     x2="-44.412601"
     y2="-201.4326"
     gradientTransform="matrix(0.9984,0.0568,0.0568,-0.9984,147.0016,-93.5403)"><stop
       offset="0"
       style="stop-color:#C51015"
       id="stop52" /><stop
       offset="1"
       style="stop-color:#E20A16"
       id="stop54" /></linearGradient><linearGradient
     id="SVGID_6_-0"
     gradientUnits="userSpaceOnUse"
     x1="-21.388201"
     y1="-197.5625"
     x2="-21.388201"
     y2="-206.748"
     gradientTransform="matrix(0.9984,0.0568,0.0568,-0.9984,147.0016,-93.5403)"><stop
       offset="0"
       style="stop-color:#F3A800"
       id="stop59" /><stop
       offset="1"
       style="stop-color:#FFBF00"
       id="stop61" /></linearGradient><linearGradient
     id="SVGID_7_-7"
     gradientUnits="userSpaceOnUse"
     x1="-30.7568"
     y1="-185.6152"
     x2="-30.7568"
     y2="-194.7993"
     gradientTransform="matrix(0.9984,0.0568,0.0568,-0.9984,147.0016,-93.5403)"><stop
       offset="0"
       style="stop-color:#80C11B"
       id="stop66" /><stop
       offset="1"
       style="stop-color:#80E21B"
       id="stop68" /></linearGradient><linearGradient
     id="SVGID_8_-8"
     gradientUnits="userSpaceOnUse"
     x1="-35.044899"
     y1="-204.1938"
     x2="-35.044899"
     y2="-213.37891"
     gradientTransform="matrix(0.9984,0.0568,0.0568,-0.9984,147.0016,-93.5403)"><stop
       offset="0"
       style="stop-color:#57C7F1"
       id="stop73" /><stop
       offset="1"
       style="stop-color:#99DBF6"
       id="stop75" /></linearGradient><linearGradient
     id="SVGID_9_-6"
     gradientUnits="userSpaceOnUse"
     x1="-88.946297"
     y1="-196.1416"
     x2="-88.946297"
     y2="-226.2002"
     gradientTransform="matrix(0.9981,0.0613,0.0613,-0.9981,155.9071,-117.3663)"><stop
       offset="0"
       style="stop-color:#80C11B"
       id="stop84" /><stop
       offset="1"
       style="stop-color:#80E21B"
       id="stop86" /></linearGradient></defs><sodipodi:namedview
   pagecolor="#ffffff"
   bordercolor="#666666"
   borderopacity="1"
   objecttolerance="10"
   gridtolerance="10"
   guidetolerance="10"
   inkscape:pageopacity="0"
   inkscape:pageshadow="2"
   inkscape:window-width="1280"
   inkscape:window-height="750"
   id="namedview127"
   showgrid="false"
   inkscape:zoom="3.1267378"
   inkscape:cx="78.605846"
   inkscape:cy="5.3393241"
   inkscape:window-x="-3"
   inkscape:window-y="-3"
   inkscape:window-maximized="1"
   inkscape:current-layer="Layer_1" />

<g
   transform="matrix(1.3051168,0,0,1.3051168,-37.492118,-55.828244)"
   id="g23"><g
     id="g25"><linearGradient
       id="linearGradient3112"
       gradientUnits="userSpaceOnUse"
       x1="-114.9897"
       y1="-871.33838"
       x2="-114.9897"
       y2="-875.92761"
       gradientTransform="matrix(0.9592,0.2827,0.2827,-0.9592,444.1304,-735.9191)"><stop
         offset="0"
         style="stop-color:#DEDEDE"
         id="stop3114" /><stop
         offset="1"
         style="stop-color:#FEFEFE"
         id="stop3116" /></linearGradient><path
       style="fill:url(#SVGID_3_-4);stroke:#000000;stroke-miterlimit:3.86369991"
       inkscape:connector-curvature="0"
       stroke-miterlimit="3.8637"
       d="m 82.772,72.009 0.873,-2.966 c 0.504,-1.708 2.295,-2.687 4.006,-2.185 l 0,0 c 1.704,0.502 2.686,2.297 2.184,4.005 l 0,0 -0.879,2.969 c -0.502,1.708 -2.301,2.681 -4.006,2.18 l 0,0 c -1.707,-0.505 -2.681,-2.296 -2.178,-4.003 l 0,0 z"
       id="path32" /></g><linearGradient
     id="linearGradient3119"
     gradientUnits="userSpaceOnUse"
     x1="-83.4375"
     y1="-1014.0278"
     x2="-154.76109"
     y2="-977.86139"
     gradientTransform="matrix(0.9098,0.415,0.415,-0.9098,601.2445,-757.3582)"><stop
       offset="0"
       style="stop-color:#DEDEDE"
       id="stop3121" /><stop
       offset="1"
       style="stop-color:#FEFEFE"
       id="stop3123" /></linearGradient><path
     style="fill:url(#SVGID_4_-4);stroke:#000000;stroke-miterlimit:3.86369991"
     inkscape:connector-curvature="0"
     stroke-miterlimit="3.8637"
     d="m 124.66,110.872 c 2.637,-9.049 -0.498,-18.389 -7.225,-24.106 L 117.37,86.712 C 113.299,83.4 107.761,79.732 100.349,76.353 96.044,74.39 91.093,72.516 85.427,70.871 69.531,66.23 57.162,66.073 49.348,67.254 41.922,68.569 35.466,73.36 32.247,80.403 c -0.449,0.989 -0.846,2.045 -1.162,3.153 -3.247,11.148 2.287,22.787 12.586,27.481 1.005,0.457 2.043,0.85 3.113,1.164 8.765,2.553 17.8,-0.298 23.557,-6.588 2.622,-0.204 4.645,0.129 6.342,0.901 1.085,0.502 2.089,1.189 3.088,2.188 1.377,7.208 6.144,13.529 13.091,16.703 1.002,0.457 2.038,0.843 3.104,1.164 11.198,3.253 22.833,-2.284 27.533,-12.582 0.455,-1.004 0.845,-2.048 1.161,-3.115 z"
     id="path39" /><g
     id="g41"
     transform="translate(1.5324299,1.5324299)"><path
       style="fill:#858383"
       inkscape:connector-curvature="0"
       d="m 96.414,102.102 c -0.69,2.44 -3.229,3.86 -5.671,3.168 -2.438,-0.693 -3.855,-3.231 -3.164,-5.67 0.692,-2.44 3.229,-3.857 5.668,-3.166 2.441,0.689 3.859,3.229 3.167,5.668 l 0,0 z"
       id="path43" /><path
       style="fill:#858383"
       inkscape:connector-curvature="0"
       d="m 119.1,108.715 c -0.688,2.442 -3.229,3.859 -5.67,3.168 -2.438,-0.692 -3.856,-3.229 -3.164,-5.67 0.69,-2.438 3.227,-3.856 5.67,-3.166 2.438,0.691 3.857,3.229 3.164,5.668 l 0,0 z"
       id="path45" /><path
       style="fill:#858383"
       inkscape:connector-curvature="0"
       d="m 110.428,96.257 c -0.691,2.44 -3.231,3.855 -5.673,3.166 -2.438,-0.692 -3.856,-3.229 -3.163,-5.67 0.69,-2.438 3.229,-3.858 5.668,-3.167 2.44,0.692 3.86,3.229 3.168,5.671 l 0,0 z"
       id="path47" /><path
       style="fill:#858383"
       inkscape:connector-curvature="0"
       d="m 105.087,114.563 c -0.689,2.438 -3.227,3.855 -5.667,3.164 -2.441,-0.689 -3.856,-3.229 -3.164,-5.67 0.689,-2.44 3.227,-3.855 5.667,-3.166 2.441,0.692 3.855,3.232 3.164,5.672 l 0,0 z"
       id="path49" /><linearGradient
       id="linearGradient3131"
       gradientUnits="userSpaceOnUse"
       x1="-44.412601"
       y1="-192.2471"
       x2="-44.412601"
       y2="-201.4326"
       gradientTransform="matrix(0.9984,0.0568,0.0568,-0.9984,147.0016,-93.5403)"><stop
         offset="0"
         style="stop-color:#C51015"
         id="stop3133" /><stop
         offset="1"
         style="stop-color:#E20A16"
         id="stop3135" /></linearGradient><path
       style="fill:url(#SVGID_5_-3)"
       inkscape:connector-curvature="0"
       d="m 95.896,101.711 c -0.692,2.443 -3.229,3.86 -5.67,3.169 -2.441,-0.691 -3.857,-3.231 -3.165,-5.67 0.691,-2.441 3.229,-3.856 5.669,-3.167 2.439,0.692 3.859,3.229 3.166,5.668 l 0,0 z"
       id="path56" /><linearGradient
       id="linearGradient3138"
       gradientUnits="userSpaceOnUse"
       x1="-21.388201"
       y1="-197.5625"
       x2="-21.388201"
       y2="-206.748"
       gradientTransform="matrix(0.9984,0.0568,0.0568,-0.9984,147.0016,-93.5403)"><stop
         offset="0"
         style="stop-color:#F3A800"
         id="stop3140" /><stop
         offset="1"
         style="stop-color:#FFBF00"
         id="stop3142" /></linearGradient><path
       style="fill:url(#SVGID_6_-0)"
       inkscape:connector-curvature="0"
       d="m 118.583,108.326 c -0.691,2.44 -3.231,3.86 -5.67,3.168 -2.441,-0.693 -3.858,-3.231 -3.166,-5.672 0.694,-2.438 3.229,-3.855 5.67,-3.164 2.44,0.69 3.855,3.23 3.166,5.668 l 0,0 z"
       id="path63" /><linearGradient
       id="linearGradient3145"
       gradientUnits="userSpaceOnUse"
       x1="-30.7568"
       y1="-185.6152"
       x2="-30.7568"
       y2="-194.7993"
       gradientTransform="matrix(0.9984,0.0568,0.0568,-0.9984,147.0016,-93.5403)"><stop
         offset="0"
         style="stop-color:#80C11B"
         id="stop3147" /><stop
         offset="1"
         style="stop-color:#80E21B"
         id="stop3149" /></linearGradient><path
       style="fill:url(#SVGID_7_-7)"
       inkscape:connector-curvature="0"
       d="m 109.907,95.866 c -0.692,2.44 -3.229,3.858 -5.67,3.166 -2.44,-0.69 -3.855,-3.229 -3.165,-5.668 0.69,-2.439 3.229,-3.857 5.669,-3.166 2.441,0.69 3.857,3.228 3.166,5.668 l 0,0 z"
       id="path70" /><linearGradient
       id="linearGradient3152"
       gradientUnits="userSpaceOnUse"
       x1="-35.044899"
       y1="-204.1938"
       x2="-35.044899"
       y2="-213.37891"
       gradientTransform="matrix(0.9984,0.0568,0.0568,-0.9984,147.0016,-93.5403)"><stop
         offset="0"
         style="stop-color:#57C7F1"
         id="stop3154" /><stop
         offset="1"
         style="stop-color:#99DBF6"
         id="stop3156" /></linearGradient><path
       style="fill:url(#SVGID_8_-8)"
       inkscape:connector-curvature="0"
       d="m 104.57,114.171 c -0.691,2.443 -3.228,3.86 -5.67,3.167 -2.438,-0.688 -3.855,-3.229 -3.166,-5.666 0.692,-2.44 3.231,-3.86 5.67,-3.168 2.441,0.689 3.861,3.228 3.166,5.667 l 0,0 z"
       id="path77" /></g><g
     id="g79"
     transform="translate(-3.0648598,1.5324299)"><path
       style="fill:#858383"
       inkscape:connector-curvature="0"
       d="M 69.138,92.502 C 66.838,100.48 58.513,105.079 50.537,102.78 42.566,100.481 37.965,92.153 40.264,84.182 42.563,76.21 50.889,71.608 58.861,73.907 c 7.975,2.295 12.574,10.625 10.277,18.595 l 0,0 z"
       id="path81" /><linearGradient
       id="linearGradient3161"
       gradientUnits="userSpaceOnUse"
       x1="-88.946297"
       y1="-196.1416"
       x2="-88.946297"
       y2="-226.2002"
       gradientTransform="matrix(0.9981,0.0613,0.0613,-0.9981,155.9071,-117.3663)"><stop
         offset="0"
         style="stop-color:#80C11B"
         id="stop3163" /><stop
         offset="1"
         style="stop-color:#80E21B"
         id="stop3165" /></linearGradient><path
       style="fill:url(#SVGID_9_-6)"
       inkscape:connector-curvature="0"
       d="m 68.621,92.111 c -2.299,7.976 -10.625,12.576 -18.598,10.277 -7.974,-2.3 -12.574,-10.625 -10.274,-18.599 2.299,-7.972 10.623,-12.573 18.597,-10.278 7.971,2.302 12.573,10.632 10.275,18.6 l 0,0 z"
       id="path88" /><polygon
       style="fill:#dedede"
       points="56.553,79.733 57.638,84.836 52.918,83.476 "
       id="polygon90" /><polygon
       style="fill:#dedede"
       points="51.815,96.17 55.448,92.43 50.727,91.069 "
       id="polygon92" /><polygon
       style="fill:#dedede"
       points="62.403,90.32 57.301,91.407 58.657,86.687 "
       id="polygon94" /><polygon
       style="fill:#dedede"
       points="45.965,85.583 49.709,89.215 51.066,84.501 "
       id="polygon96" /></g></g><g
   id="g3"
   transform="matrix(0.24833127,0.09041775,-0.09041775,0.24833127,62.565776,22.978154)">
	
	
		<linearGradient
   id="SVGID_2_"
   gradientUnits="userSpaceOnUse"
   x1="-17.893999"
   y1="-31.6499"
   x2="-77.366402"
   y2="9.993"
   gradientTransform="matrix(0.9976,0,0,-0.9975,112.6875,11.5658)">
		<stop
   offset="0"
   style="stop-color:#C5C6C8"
   id="stop21" />
		<stop
   offset="1"
   style="stop-color:#EFF0F0"
   id="stop23" />
	</linearGradient>
	
	<g
   id="g27">
		
			<linearGradient
   id="SVGID_3_"
   gradientUnits="userSpaceOnUse"
   x1="-76.565399"
   y1="-65.9785"
   x2="-76.565399"
   y2="-42.109901"
   gradientTransform="matrix(1,0,0,-1,123.3447,2.9531)">
			<stop
   offset="0"
   style="stop-color:#EC008C"
   id="stop30" />
			<stop
   offset="1"
   style="stop-color:#C40075"
   id="stop32" />
		</linearGradient>
		<path
   d="m 58.895,62.534 c 0,0 -1.862,-17.564 -23.375,-20.78 0,0 -7.655,29.935 10.548,32.657 18.203,2.72 12.827,-11.877 12.827,-11.877 z"
   id="path34"
   style="fill:url(#SVGID_3_);stroke:#969696;stroke-linecap:round;stroke-linejoin:round"
   inkscape:connector-curvature="0" />
		
			<linearGradient
   id="SVGID_4_"
   gradientUnits="userSpaceOnUse"
   x1="-40.586399"
   y1="-65.9785"
   x2="-40.586399"
   y2="-42.109901"
   gradientTransform="matrix(1,0,0,-1,123.3447,2.9531)">
			<stop
   offset="0"
   style="stop-color:#EC008C"
   id="stop37" />
			<stop
   offset="1"
   style="stop-color:#C40075"
   id="stop39" />
		</linearGradient>
		<path
   d="m 70.645,62.534 c 0,0 1.861,-17.564 23.373,-20.78 0,0 7.653,29.935 -10.55,32.657 C 65.266,77.131 70.645,62.534 70.645,62.534 z"
   id="path41"
   style="fill:url(#SVGID_4_);stroke:#969696;stroke-linecap:round;stroke-linejoin:round"
   inkscape:connector-curvature="0" />
		
			<linearGradient
   id="SVGID_5_"
   gradientUnits="userSpaceOnUse"
   x1="-48.415501"
   y1="-80.014198"
   x2="-76.759201"
   y2="-60.167702"
   gradientTransform="matrix(1,0,0,-1,123.3447,2.9531)">
			<stop
   offset="0"
   style="stop-color:#DEDEDE"
   id="stop44" />
			<stop
   offset="1"
   style="stop-color:#FEFEFE"
   id="stop46" />
		</linearGradient>
		<path
   d="m 64.768,103.605 c 15.272,0 28.205,-10.04 32.613,-23.9 C 92.973,65.842 80.04,44.726 64.768,44.726 c -15.271,0 -28.203,21.116 -32.611,34.979 4.408,13.86 17.34,23.9 32.611,23.9 z"
   id="path48"
   style="fill:url(#SVGID_5_);stroke:#969696;stroke-linecap:round;stroke-linejoin:round"
   inkscape:connector-curvature="0" />
		<g
   id="g50">
			<g
   id="g52">
				<g
   id="g54">
					<line
   x1="53.596001"
   y1="92.016998"
   x2="36.07"
   y2="105.643"
   id="line56"
   style="fill:none" />
					<path
   d="m 53.357,91.577 -17.525,13.625 c -0.204,0.16 -0.261,0.482 -0.129,0.728 0.132,0.242 0.403,0.311 0.606,0.152 L 53.834,92.459 c 0.202,-0.158 0.261,-0.484 0.128,-0.728 -0.13,-0.243 -0.402,-0.311 -0.605,-0.154 z"
   id="path58"
   inkscape:connector-curvature="0"
   style="fill:#969696" />
				</g>
				<g
   id="g60">
					<line
   x1="57.540001"
   y1="92.541"
   x2="40.014"
   y2="106.168"
   id="line62"
   style="fill:none" />
					<path
   d="m 57.3,92.103 -17.526,13.623 c -0.203,0.157 -0.26,0.483 -0.128,0.727 0.132,0.244 0.403,0.312 0.605,0.156 L 57.777,92.98 c 0.203,-0.157 0.262,-0.482 0.129,-0.727 -0.133,-0.241 -0.403,-0.309 -0.606,-0.15 z"
   id="path64"
   inkscape:connector-curvature="0"
   style="fill:#969696" />
				</g>
			</g>
			<g
   id="g66">
				<g
   id="g68">
					<line
   x1="75.941002"
   y1="92.016998"
   x2="93.467003"
   y2="105.643"
   id="line70"
   style="fill:none" />
					<path
   d="m 76.18,91.577 17.525,13.625 c 0.203,0.16 0.26,0.482 0.129,0.728 -0.132,0.242 -0.402,0.311 -0.605,0.152 L 75.703,92.459 c -0.203,-0.158 -0.262,-0.484 -0.13,-0.728 0.133,-0.243 0.406,-0.311 0.607,-0.154 z"
   id="path72"
   inkscape:connector-curvature="0"
   style="fill:#969696" />
				</g>
				<g
   id="g74">
					<line
   x1="71.998001"
   y1="92.541"
   x2="89.523003"
   y2="106.168"
   id="line76"
   style="fill:none" />
					<path
   d="m 72.236,92.103 17.525,13.623 c 0.202,0.157 0.26,0.483 0.129,0.727 -0.134,0.243 -0.404,0.312 -0.605,0.156 L 71.759,92.98 c -0.202,-0.157 -0.261,-0.482 -0.129,-0.727 0.134,-0.241 0.404,-0.309 0.606,-0.15 z"
   id="path78"
   inkscape:connector-curvature="0"
   style="fill:#969696" />
				</g>
			</g>
		</g>
		<path
   d="m 46.485,75.449 c 0,0 12.129,-3.232 9.434,9.704 0,0 -11.32,2.427 -9.434,-9.704 z"
   id="path80"
   inkscape:connector-curvature="0"
   style="fill:#ffffff" />
		<path
   d="m 83.052,75.449 c 0,0 -12.13,-3.232 -9.433,9.704 0,0 11.319,2.427 9.433,-9.704 z"
   id="path82"
   inkscape:connector-curvature="0"
   style="fill:#ffffff" />
		
			<line
   x1="64.769997"
   y1="93.445999"
   x2="64.769997"
   y2="98.498001"
   id="line84"
   style="fill:none;stroke:#969696;stroke-width:2;stroke-linecap:round;stroke-linejoin:round" />
		
			<linearGradient
   id="SVGID_6_"
   gradientUnits="userSpaceOnUse"
   x1="-71.436501"
   y1="-52.077599"
   x2="-62.0527"
   y2="-52.077599"
   gradientTransform="matrix(1,0,0,-1,123.3447,2.9531)">
			<stop
   offset="0"
   style="stop-color:#9A9A9A"
   id="stop87" />
			<stop
   offset="1"
   style="stop-color:#DEDEDE"
   id="stop89" />
		</linearGradient>
		<polygon
   points="61.292,63.718 58.077,46.343 51.908,48.778 "
   id="polygon91"
   style="fill:url(#SVGID_6_)" />
		
			<linearGradient
   id="SVGID_7_"
   gradientUnits="userSpaceOnUse"
   x1="-63.684601"
   y1="-50.800301"
   x2="-57.702099"
   y2="-50.800301"
   gradientTransform="matrix(1,0,0,-1,123.3447,2.9531)">
			<stop
   offset="0"
   style="stop-color:#9A9A9A"
   id="stop94" />
			<stop
   offset="1"
   style="stop-color:#DEDEDE"
   id="stop96" />
		</linearGradient>
		<polygon
   points="64.208,62.294 65.643,45.332 59.66,45.212 "
   id="polygon98"
   style="fill:url(#SVGID_7_)" />
		
			<linearGradient
   id="SVGID_8_"
   gradientUnits="userSpaceOnUse"
   x1="-73.597702"
   y1="-76.079102"
   x2="-67.471703"
   y2="-76.079102"
   gradientTransform="matrix(1,0,0,-1,123.3447,2.9531)">
			<stop
   offset="0"
   style="stop-color:#00B2DE"
   id="stop101" />
			<stop
   offset="1"
   style="stop-color:#99DBF6"
   id="stop103" />
		</linearGradient>
		<circle
   cx="52.810001"
   cy="79.031998"
   r="3.063"
   id="circle105"
   d="m 55.873001,79.031998 c 0,1.691648 -1.371351,3.063 -3.063,3.063 -1.691648,0 -3.063,-1.371352 -3.063,-3.063 0,-1.691648 1.371352,-3.063 3.063,-3.063 1.691649,0 3.063,1.371352 3.063,3.063 z"
   style="fill:url(#SVGID_8_)"
   sodipodi:cx="52.810001"
   sodipodi:cy="79.031998"
   sodipodi:rx="3.063"
   sodipodi:ry="3.063" />
		
			<linearGradient
   id="SVGID_9_"
   gradientUnits="userSpaceOnUse"
   x1="-49.721699"
   y1="-76.079102"
   x2="-43.595699"
   y2="-76.079102"
   gradientTransform="matrix(1,0,0,-1,123.3447,2.9531)">
			<stop
   offset="0"
   style="stop-color:#00B2DE"
   id="stop108" />
			<stop
   offset="1"
   style="stop-color:#99DBF6"
   id="stop110" />
		</linearGradient>
		<circle
   cx="76.685997"
   cy="79.031998"
   r="3.063"
   id="circle112"
   d="m 79.748997,79.031998 c 0,1.691648 -1.371352,3.063 -3.063,3.063 -1.691648,0 -3.063,-1.371352 -3.063,-3.063 0,-1.691648 1.371352,-3.063 3.063,-3.063 1.691648,0 3.063,1.371352 3.063,3.063 z"
   style="fill:url(#SVGID_9_)"
   sodipodi:cx="76.685997"
   sodipodi:cy="79.031998"
   sodipodi:rx="3.063"
   sodipodi:ry="3.063" />
		<path
   d="m 46.259,74.603 -0.553,0.147 -0.087,0.563 c -0.623,4.003 0.064,6.978 2.039,8.845 3.123,2.949 8.229,1.896 8.444,1.852 l 0.559,-0.12 0.115,-0.56 c 0.886,-4.246 0.33,-7.352 -1.65,-9.227 -3.151,-2.98 -8.635,-1.56 -8.867,-1.5 z m 7.666,2.778 c 1.005,0.955 1.51,2.41 1.51,4.351 0,0.795 -0.106,1.694 -0.277,2.653 -1.279,0.158 -4.384,0.312 -6.3,-1.506 -1.138,-1.076 -1.709,-2.713 -1.709,-4.881 0,-0.559 0.076,-1.19 0.153,-1.822 1.325,-0.243 4.683,-0.635 6.623,1.205 z"
   id="path114"
   inkscape:connector-curvature="0"
   style="fill:#969696" />
		<path
   d="m 74.41,76.104 c -1.98,1.875 -2.535,4.979 -1.648,9.228 l 0.115,0.559 0.559,0.119 c 0.215,0.047 5.32,1.1 8.443,-1.851 1.977,-1.866 2.661,-4.842 2.039,-8.845 L 83.83,74.751 83.277,74.603 c -0.23,-0.06 -5.714,-1.48 -8.867,1.501 z m -0.308,5.627 c 0,-1.938 0.506,-3.396 1.51,-4.351 1.941,-1.842 5.299,-1.448 6.625,-1.205 0.076,0.632 0.152,1.265 0.152,1.822 0,2.168 -0.572,3.805 -1.707,4.881 -1.918,1.816 -5.022,1.664 -6.303,1.506 -0.17,-0.958 -0.277,-1.858 -0.277,-2.653 z"
   id="path116"
   inkscape:connector-curvature="0"
   style="fill:#969696" />
		<g
   id="g118">
			
				<linearGradient
   id="SVGID_10_"
   gradientUnits="userSpaceOnUse"
   x1="-64.433601"
   y1="-89.594704"
   x2="-52.7188"
   y2="-89.594704"
   gradientTransform="matrix(1,0,0,-1,123.3447,2.9531)">
				<stop
   offset="0"
   style="stop-color:#9A9A9A"
   id="stop121" />
				<stop
   offset="1"
   style="stop-color:#DEDEDE"
   id="stop123" />
			</linearGradient>
			<path
   d="m 63.19,95.187 c 0.868,1.037 2.289,1.037 3.156,0 l 3.93,-4.701 c 0.152,-0.183 0.27,-0.358 0.351,-0.526 -1.758,-0.529 -3.747,-0.828 -5.856,-0.828 -2.11,0 -4.101,0.299 -5.858,0.828 0.082,0.168 0.197,0.344 0.35,0.526 l 3.927,4.701 z"
   id="path125"
   style="fill:url(#SVGID_10_)"
   inkscape:connector-curvature="0" />
		</g>
	</g>
</g><g
   transform="matrix(0.93848626,0.34531658,-0.34531658,0.93848626,0,0)"
   style="font-size:8.92485332px;font-style:normal;font-variant:normal;font-weight:bold;font-stretch:normal;line-height:125%;letter-spacing:0px;word-spacing:0px;fill:#6699cc;fill-opacity:1;stroke:none;font-family:Angelina;-inkscape-font-specification:Angelina Bold"
   id="text3237"><path
     d="m 69.987842,31.796753 0.03825,-0.08925 c 0.453325,-1.116313 0.869818,-1.67447 1.24948,-1.674472 0.317326,2e-6 0.517073,0.463244 0.59924,1.389727 0.01416,0.220997 0.04675,0.522742 0.09775,0.905235 0.04533,0.235163 0.107663,0.352744 0.186997,0.352744 0.068,0 0.128912,-0.02408 0.182747,-0.07225 0.05666,-0.051 0.09633,-0.0765 0.118998,-0.0765 0.08216,0 0.123245,0.04108 0.123248,0.123248 -3e-6,0.0765 -0.0595,0.14733 -0.178497,0.212496 -0.102001,0.05383 -0.185583,0.08075 -0.250746,0.08075 -0.348496,-10e-7 -0.568076,-0.460409 -0.658739,-1.381228 -0.017,-0.218161 -0.04958,-0.517073 -0.09775,-0.896735 -0.03967,-0.232327 -0.09067,-0.348492 -0.152998,-0.348494 -0.164332,2e-6 -0.375411,0.260664 -0.633239,0.781987 -0.348495,0.699823 -0.549658,1.357145 -0.60349,1.971968 -0.0028,0.03683 -0.02975,0.0765 -0.08075,0.118998 -0.04817,0.0425 -0.09633,0.06375 -0.144498,0.06375 -0.04533,-1e-6 -0.07792,-0.02267 -0.09775,-0.068 -0.0425,-0.107666 -0.06375,-0.470326 -0.06375,-1.087982 0,-0.589323 0.09208,-1.442141 0.276245,-2.558458 0.19833,-1.223976 0.381077,-1.835965 0.548241,-1.83597 0.141664,5e-6 0.212496,0.06942 0.212497,0.208246 -10e-7,0.0028 -0.04958,0.158669 -0.148748,0.467493 -0.104832,0.328665 -0.179914,0.61766 -0.225246,0.866985 -0.178497,1.031319 -0.277662,1.879888 -0.297495,2.545709"
     style=""
     id="path3107" /><path
     d="m 75.705326,32.663738 c -0.269164,-0.09633 -0.403745,-0.410826 -0.403743,-0.943484 -2e-6,-0.05666 0.0014,-0.114747 0.0043,-0.174247 -0.280498,0.373994 -0.589325,0.715405 -0.926485,1.024233 -0.433494,0.39666 -0.774904,0.59499 -1.024233,0.59499 -0.08217,0 -0.152998,-0.02267 -0.212497,-0.068 -0.101998,-0.0765 -0.152997,-0.201163 -0.152997,-0.373994 l 0,0 c 0,-0.35416 0.18983,-0.831569 0.56949,-1.432226 0.368327,-0.575155 0.770653,-1.048314 1.206981,-1.419477 0.47599,-0.405157 0.828734,-0.532654 1.058232,-0.382493 0.107662,0.068 0.161495,0.211082 0.161498,0.429242 -3e-6,0.260665 -0.08925,0.399496 -0.267746,0.416494 -0.124667,0.0085 -0.186999,-0.03541 -0.186997,-0.131748 -2e-6,-0.01416 0.0028,-0.02691 0.0085,-0.03825 0.05383,-0.133161 0.07933,-0.252159 0.0765,-0.356994 -3e-6,-0.06233 -0.0071,-0.09208 -0.02125,-0.08925 -0.280498,0.051 -0.73524,0.484494 -1.364228,1.300478 -0.626156,0.813154 -0.939234,1.374145 -0.939234,1.682973 0,0.107664 0.04817,0.161497 0.144497,0.161497 0.246496,0 0.633239,-0.318745 1.160231,-0.956234 0.365493,-0.441992 0.565239,-0.687071 0.599241,-0.735238 0.161495,-0.223828 0.253576,-0.429241 0.276245,-0.61624 0.01416,-0.127496 0.08216,-0.191245 0.203997,-0.191247 l 0,0 c 0.172827,2e-6 0.242243,0.08358 0.208246,0.250746 -0.138833,0.728156 -0.208249,1.171565 -0.208246,1.330228 -3e-6,0.288996 0.06375,0.450493 0.191247,0.484492 0.04533,0.01133 0.0935,0.0028 0.144497,-0.0255 0.0425,-0.0255 0.06658,-0.051 0.07225,-0.0765 0.02833,-0.121831 0.09916,-0.182747 0.212496,-0.182747 0.068,0 0.101996,0.03683 0.101999,0.110498 -3e-6,0.03117 -0.0085,0.06942 -0.0255,0.114748 -0.08783,0.220997 -0.246499,0.331495 -0.475992,0.331495 -0.06234,0 -0.126084,-0.01275 -0.191247,-0.03825"
     style=""
     id="path3109" /><path
     d="m 77.491326,30.895767 c 0.580823,-0.841483 1.157396,-1.262226 1.729722,-1.262229 0.376824,3e-6 0.565238,0.269165 0.565241,0.807487 -3e-6,0.444828 -0.198333,0.937819 -0.594991,1.478976 -0.410828,0.560991 -0.806071,0.841486 -1.18573,0.841486 -0.286163,0 -0.429244,-0.145915 -0.429243,-0.437743 -10e-7,-0.09067 0.02975,-0.205413 0.08925,-0.344244 l 0.178498,0 c 0.0057,0.0595 0.0028,0.120415 -0.0085,0.182747 -0.01133,0.07366 -0.017,0.131748 -0.017,0.174247 -1e-6,0.06517 0.03825,0.09775 0.114748,0.09775 0.359826,0 0.706903,-0.286161 1.041233,-0.858486 0.294659,-0.50149 0.44199,-0.912316 0.441993,-1.232479 -3e-6,-0.28616 -0.0765,-0.429241 -0.229497,-0.429243 -0.305996,2e-6 -0.664407,0.252165 -1.075232,0.756487 -0.373995,0.456161 -0.590741,0.832988 -0.650239,1.130482 -0.107665,0.509991 -0.164331,1.103564 -0.169997,1.78072 -0.01133,0.949149 0.127497,1.423724 0.416493,1.423727 0.0028,-3e-6 0.017,-0.0057 0.0425,-0.017 0.02833,-0.0085 0.100581,-0.034 0.216746,-0.0765 l 0,0.161498 c -1e-6,0.05383 -0.04533,0.100579 -0.135997,0.140247 -0.07367,0.034 -0.127499,0.04958 -0.161498,0.04675 -0.237996,-0.02267 -0.42216,-0.1955 -0.552491,-0.518492 -0.09916,-0.249331 -0.154414,-0.543992 -0.165747,-0.883985 -0.0057,-0.158665 -0.0085,-0.321579 -0.0085,-0.488742 0,-0.60349 0.06942,-1.660305 0.208247,-3.170448 0.03967,-0.413657 0.16008,-0.620487 0.361244,-0.62049 0.127497,3e-6 0.191246,0.06942 0.191247,0.208247 -10e-7,0.017 -0.0014,0.034 -0.0042,0.051 l -0.208247,1.058232"
     style=""
     id="path3111" /><path
     d="m 80.646401,30.895767 c 0.580823,-0.841483 1.157396,-1.262226 1.729722,-1.262229 0.376824,3e-6 0.565238,0.269165 0.565241,0.807487 -3e-6,0.444828 -0.198333,0.937819 -0.594991,1.478976 -0.410828,0.560991 -0.806071,0.841486 -1.18573,0.841486 -0.286163,0 -0.429244,-0.145915 -0.429243,-0.437743 -10e-7,-0.09067 0.02975,-0.205413 0.08925,-0.344244 l 0.178497,0 c 0.0057,0.0595 0.0028,0.120415 -0.0085,0.182747 -0.01133,0.07366 -0.017,0.131748 -0.017,0.174247 -10e-7,0.06517 0.03825,0.09775 0.114748,0.09775 0.359826,0 0.706904,-0.286161 1.041233,-0.858486 0.29466,-0.50149 0.44199,-0.912316 0.441993,-1.232479 -3e-6,-0.28616 -0.0765,-0.429241 -0.229496,-0.429243 -0.305997,2e-6 -0.664408,0.252165 -1.075233,0.756487 -0.373994,0.456161 -0.590741,0.832988 -0.650239,1.130482 -0.107665,0.509991 -0.164331,1.103564 -0.169997,1.78072 -0.01133,0.949149 0.127497,1.423724 0.416493,1.423727 0.0028,-3e-6 0.017,-0.0057 0.0425,-0.017 0.02833,-0.0085 0.100581,-0.034 0.216747,-0.0765 l 0,0.161498 c -10e-7,0.05383 -0.04533,0.100579 -0.135998,0.140247 -0.07367,0.034 -0.127499,0.04958 -0.161498,0.04675 -0.237996,-0.02267 -0.42216,-0.1955 -0.55249,-0.518492 -0.09917,-0.249331 -0.154415,-0.543992 -0.165748,-0.883985 -0.0057,-0.158665 -0.0085,-0.321579 -0.0085,-0.488742 0,-0.60349 0.06942,-1.660305 0.208247,-3.170448 0.03967,-0.413657 0.16008,-0.620487 0.361244,-0.62049 0.127497,3e-6 0.191246,0.06942 0.191247,0.208247 -10e-7,0.017 -0.0014,0.034 -0.0042,0.051 l -0.208247,1.058232"
     style=""
     id="path3113" /><path
     d="m 83.729593,35.345444 c -0.410827,-2e-6 -0.779154,-0.174249 -1.104982,-0.522741 -0.286161,-0.30033 -0.429242,-0.573742 -0.429243,-0.820237 10e-7,-0.118999 0.04817,-0.178498 0.144498,-0.178497 0.05383,-10e-7 0.09492,0.0425 0.123248,0.127498 0.017,0.06233 0.034,0.12608 0.051,0.191247 0.085,0.235161 0.218163,0.429241 0.399493,0.58224 0.18983,0.161496 0.402327,0.252161 0.63749,0.271996 0.603489,0.051 1.080897,-0.281914 1.432226,-0.998734 0.283327,-0.577991 0.424991,-1.21973 0.424993,-1.925218 -2e-6,-0.484491 -0.06942,-1.08373 -0.208246,-1.79772 -0.240832,0.620491 -0.440578,1.0809 -0.599241,1.381227 -0.322995,0.609157 -0.63749,0.963317 -0.943484,1.062482 -0.05383,0.017 -0.104832,0.0255 -0.152998,0.0255 -0.271995,0 -0.407993,-0.209663 -0.407993,-0.62899 0,-0.385326 0.100582,-0.9279 0.301745,-1.627723 0.212496,-0.736652 0.398076,-1.112062 0.556741,-1.126231 0.05666,-0.0057 0.114747,0.01559 0.174247,0.06375 0.06233,0.04534 0.0935,0.09067 0.0935,0.135997 -10e-7,0.01417 -0.0028,0.02692 -0.0085,0.03825 -0.167165,0.260665 -0.322996,0.586493 -0.467493,0.977484 -0.201163,0.546826 -0.301745,1.048317 -0.301745,1.504475 0,0.24083 0.03542,0.361244 0.106249,0.361244 0.08783,0 0.230912,-0.150164 0.429243,-0.450493 0.09633,-0.144496 0.192662,-0.305994 0.288995,-0.484492 0.402325,-0.631821 0.636071,-1.153145 0.701238,-1.563974 0.02266,-0.147328 0.02692,-0.277659 0.01275,-0.390994 -0.02267,-0.19266 0.04675,-0.288991 0.208247,-0.288995 0.152995,4e-6 0.245077,0.143084 0.276245,0.429243 l 0.0042,0.05525 c 0.068,0.631825 0.145912,1.022819 0.233746,1.172981 0.04816,0.08217 0.07225,0.47316 0.07225,1.172981 -3e-6,0.643156 -0.14025,1.284895 -0.420743,1.925218 -0.385329,0.883983 -0.927903,1.325976 -1.627723,1.325978"
     style=""
     id="path3115" /><path
     d="m 91.188121,33.267228 -0.07225,-0.017 c 0.0028,0.0028 0.0057,0.0057 0.0085,0.0085 -0.04533,-0.02267 -0.068,-0.05525 -0.068,-0.09775 -2e-6,-0.0255 0.01275,-0.068 0.03825,-0.127498 0.0255,-0.05667 0.03825,-0.106248 0.03825,-0.148747 -3e-6,-0.393827 -0.260665,-0.689905 -0.781987,-0.888236 -0.359829,-0.135997 -0.726739,-0.203995 -1.100732,-0.203996 -0.0057,1e-6 -0.05242,0.0014 -0.140248,0.0042 -0.08783,0.0028 -0.140248,0.0043 -0.157247,0.0043 -0.124665,0 -0.186997,-0.09208 -0.186997,-0.276246 0,-0.017 0.08925,-0.11333 0.267746,-0.288995 0.206829,-0.201162 0.398075,-0.417908 0.57374,-0.650239 0.206829,-0.274827 0.396659,-0.631821 0.569491,-1.070983 0.0595,-0.147328 0.127496,-0.220993 0.203996,-0.220996 0.147329,3e-6 0.220995,0.085 0.220997,0.254996 -2e-6,0.328664 -0.432078,0.944903 -1.296229,1.848719 0.617655,0.116166 1.062481,0.239414 1.334478,0.369744 0.504323,0.24083 0.756485,0.585074 0.756488,1.032733 -3e-6,0.05383 -0.017,0.133164 -0.051,0.237996 -0.04534,0.138831 -0.09775,0.215329 -0.157248,0.229496 m -2.078216,-0.03825 c -0.337161,-0.0765 -0.566657,-0.359828 -0.688488,-0.849986 -0.068,-0.266328 -0.106248,-0.664405 -0.114748,-1.19423 -0.0028,-0.232328 0.068,-0.832984 0.212496,-1.801971 0.175664,-1.167309 0.347077,-1.750966 0.514242,-1.750971 0.02833,5e-6 0.07083,0.02267 0.127497,0.068 0.06516,0.05384 0.09775,0.109086 0.09775,0.165747 -10e-7,0.01417 -0.0028,0.02834 -0.0085,0.0425 -0.379661,1.096485 -0.569491,2.17455 -0.569491,3.234196 0,0.569492 0.06233,1.062483 0.186997,1.478976 0.0595,0.195497 0.131748,0.304578 0.216747,0.327245 0.124664,0.034 0.186996,0.08358 0.186997,0.148747 -1e-6,0.034 -0.01842,0.06658 -0.05525,0.09775 -0.034,0.03117 -0.06942,0.0425 -0.106249,0.034"
     style=""
     id="path3117" /><path
     d="m 92.23357,28.9238 c -0.06233,4e-6 -0.116165,-0.02691 -0.161497,-0.08075 -0.0425,-0.05383 -0.06375,-0.104828 -0.06375,-0.152997 0,-0.05666 0.02125,-0.113328 0.06375,-0.169998 0.04533,-0.05666 0.101998,-0.08499 0.169997,-0.085 0.14733,4e-6 0.220996,0.08075 0.220996,0.242246 0,0.164334 -0.0765,0.2465 -0.229496,0.246496 m 0.254996,4.198931 c -0.269163,-1e-6 -0.474576,-0.209664 -0.61624,-0.62899 -0.09916,-0.288995 -0.148747,-0.570906 -0.148747,-0.845736 0,-0.252161 0.03117,-0.562406 0.0935,-0.930735 0.0935,-0.532655 0.220996,-0.798984 0.382494,-0.798987 0.127497,3e-6 0.191246,0.07367 0.191247,0.220997 -10e-7,0.068 -0.03967,0.195499 -0.118998,0.382494 -0.08217,0.203998 -0.141665,0.551075 -0.178498,1.041232 0.0057,0.232331 0.0057,0.371162 0,0.416494 0.03683,0.175664 0.07367,0.351327 0.110499,0.526991 0.07366,0.232329 0.182746,0.348494 0.327244,0.348494 0.034,0 0.05666,-0.0057 0.068,-0.017 0.03966,-0.05383 0.09491,-0.09775 0.165747,-0.131748 0.0595,0.051 0.08925,0.09916 0.08925,0.144497 -10e-7,0.0765 -0.04958,0.143081 -0.148748,0.199747 -0.07933,0.04816 -0.151581,0.07225 -0.216746,0.07225"
     style=""
     id="path3119" /><path
     d="m 93.969235,30.211529 c 0.127496,-0.03116 0.280494,-0.04675 0.458992,-0.04675 0.08216,3e-6 0.179912,0.02975 0.293245,0.08925 0.144496,0.07933 0.216745,0.172833 0.216747,0.280495 -2e-6,0.01984 -0.0043,0.03825 -0.01275,0.05525 l -0.0043,0.01275 c -2e-6,-0.0057 -0.0057,0.0057 -0.017,0.034 -0.03117,0.01133 -0.0425,0.01842 -0.034,0.02125 l -0.0085,0 c -0.017,0.0085 -0.03684,0.01275 -0.0595,0.01275 -0.017,2e-6 -0.03967,-0.01558 -0.068,-0.04675 -0.05667,-0.135996 -0.150166,-0.203995 -0.280495,-0.203997 -0.04533,2e-6 -0.09633,0.0085 -0.152998,0.0255 -0.118999,0.03117 -0.24083,0.085 -0.365494,0.161497 -1e-6,0.01417 -0.0014,0.03683 -0.0042,0.068 -0.03683,0.286164 -0.04675,0.631824 -0.02975,1.036983 0.02833,0.750821 0.196912,1.126231 0.505742,1.126232 0.08783,-10e-7 0.168578,-0.04533 0.242246,-0.135998 0.07366,-0.09067 0.124662,-0.135998 0.152997,-0.135998 0.09066,0 0.135996,0.0425 0.135998,0.127498 -2e-6,0.101998 -0.08358,0.19833 -0.250746,0.288995 -0.138833,0.07366 -0.242248,0.110498 -0.310245,0.110498 -0.25783,0 -0.463243,-0.140248 -0.61624,-0.420743 -0.107666,-0.201163 -0.174248,-0.423576 -0.199747,-0.667239 -0.04533,-0.430658 -0.04817,-0.857068 -0.0085,-1.279229 -0.158665,0.05667 -0.349912,0.167166 -0.573741,0.331495 -0.02833,0.02267 -0.05525,0.034 -0.08075,0.034 -0.0765,2e-6 -0.114748,-0.07933 -0.114748,-0.237996 0,-0.09916 0.233746,-0.259244 0.701239,-0.480242 0.02833,-0.0057 0.05667,-0.01275 0.085,-0.02125 0.01983,-0.192661 0.051,-0.480239 0.0935,-0.862735 0.0425,-0.382491 0.137413,-0.573737 0.284745,-0.573741 0.12183,4e-6 0.186996,0.07934 0.195497,0.237996 l -0.174247,1.058233"
     style=""
     id="path3121" /><path
     d="m 96.392193,30.211529 c 0.127497,-0.03116 0.280494,-0.04675 0.458993,-0.04675 0.08216,3e-6 0.179912,0.02975 0.293245,0.08925 0.144495,0.07933 0.216744,0.172833 0.216746,0.280495 -2e-6,0.01984 -0.0043,0.03825 -0.01275,0.05525 l -0.0042,0.01275 c -2e-6,-0.0057 -0.0057,0.0057 -0.017,0.034 -0.03117,0.01133 -0.0425,0.01842 -0.034,0.02125 l -0.0085,0 c -0.017,0.0085 -0.03683,0.01275 -0.0595,0.01275 -0.017,2e-6 -0.03967,-0.01558 -0.068,-0.04675 -0.05667,-0.135996 -0.150166,-0.203995 -0.280496,-0.203997 -0.04533,2e-6 -0.09633,0.0085 -0.152997,0.0255 -0.119,0.03117 -0.240831,0.085 -0.365494,0.161497 -10e-7,0.01417 -0.0014,0.03683 -0.0042,0.068 -0.03683,0.286164 -0.04675,0.631824 -0.02975,1.036983 0.02833,0.750821 0.196912,1.126231 0.505742,1.126232 0.08783,-10e-7 0.168579,-0.04533 0.242246,-0.135998 0.07366,-0.09067 0.124663,-0.135998 0.152997,-0.135998 0.09066,0 0.135996,0.0425 0.135998,0.127498 -2e-6,0.101998 -0.08358,0.19833 -0.250746,0.288995 -0.138832,0.07366 -0.242247,0.110498 -0.310245,0.110498 -0.25783,0 -0.463243,-0.140248 -0.616239,-0.420743 -0.107666,-0.201163 -0.174248,-0.423576 -0.199747,-0.667239 -0.04533,-0.430658 -0.04817,-0.857068 -0.0085,-1.279229 -0.158665,0.05667 -0.349911,0.167166 -0.573741,0.331495 -0.02833,0.02267 -0.05525,0.034 -0.08075,0.034 -0.0765,2e-6 -0.114748,-0.07933 -0.114748,-0.237996 0,-0.09916 0.233746,-0.259244 0.701238,-0.480242 0.02833,-0.0057 0.05666,-0.01275 0.085,-0.02125 0.01983,-0.192661 0.051,-0.480239 0.0935,-0.862735 0.0425,-0.382491 0.137414,-0.573737 0.284745,-0.573741 0.121831,4e-6 0.186996,0.07934 0.195497,0.237996 l -0.174247,1.058233"
     style=""
     id="path3123" /><path
     d="m 98.354498,35.345444 c -0.410826,-2e-6 -0.779153,-0.174249 -1.104981,-0.522741 -0.286162,-0.30033 -0.429242,-0.573742 -0.429243,-0.820237 10e-7,-0.118999 0.04817,-0.178498 0.144497,-0.178497 0.05383,-10e-7 0.09492,0.0425 0.123248,0.127498 0.017,0.06233 0.034,0.12608 0.051,0.191247 0.085,0.235161 0.218164,0.429241 0.399494,0.58224 0.18983,0.161496 0.402326,0.252161 0.637489,0.271996 0.603489,0.051 1.080898,-0.281914 1.432227,-0.998734 0.283326,-0.577991 0.424992,-1.21973 0.424992,-1.925218 0,-0.484491 -0.06942,-1.08373 -0.208246,-1.79772 -0.240831,0.620491 -0.440578,1.0809 -0.59924,1.381227 -0.322996,0.609157 -0.63749,0.963317 -0.943484,1.062482 -0.05383,0.017 -0.104832,0.0255 -0.152998,0.0255 -0.271996,0 -0.407993,-0.209663 -0.407993,-0.62899 0,-0.385326 0.100581,-0.9279 0.301745,-1.627723 0.212496,-0.736652 0.398076,-1.112062 0.556741,-1.126231 0.05666,-0.0057 0.114747,0.01559 0.174247,0.06375 0.06233,0.04534 0.0935,0.09067 0.0935,0.135997 -10e-7,0.01417 -0.0028,0.02692 -0.0085,0.03825 -0.167164,0.260665 -0.322995,0.586493 -0.467492,0.977484 -0.201164,0.546826 -0.301745,1.048317 -0.301745,1.504475 0,0.24083 0.03542,0.361244 0.106248,0.361244 0.08783,0 0.230913,-0.150164 0.429243,-0.450493 0.09633,-0.144496 0.192663,-0.305994 0.288995,-0.484492 0.402326,-0.631821 0.636072,-1.153145 0.701239,-1.563974 0.02266,-0.147328 0.02691,-0.277659 0.01275,-0.390994 -0.02267,-0.19266 0.04675,-0.288991 0.208246,-0.288995 0.152996,4e-6 0.245076,0.143084 0.276246,0.429243 l 0.004,0.05525 c 0.068,0.631825 0.14591,1.022819 0.23375,1.172981 0.0482,0.08217 0.0722,0.47316 0.0722,1.172981 0,0.643156 -0.14025,1.284895 -0.420738,1.925218 -0.385329,0.883983 -0.927903,1.325976 -1.627724,1.325978"
     style=""
     id="path3125" /></g>
<text
   xml:space="preserve"
   style="font-size:12px;font-style:normal;font-weight:normal;line-height:125%;letter-spacing:0px;word-spacing:0px;fill:#000000;fill-opacity:1;stroke:none;font-family:Sans"
   x="-70.041054"
   y="159.02274"
   id="text4009"
   sodipodi:linespacing="125%"><tspan
     sodipodi:role="line"
     id="tspan4011"
     x="-70.041054"
     y="159.02274">font: angelina by Angie Durbin - http://www.dafont.com/angelina.font</tspan><tspan
     sodipodi:role="line"
     x="-70.041054"
     y="174.02274"
     id="tspan4013">icons: milky by Banu Önal - http://kde-look.org/content/show.php/Milky?content=133124</tspan></text>


</svg>